<?xml version="1.0" standalone="no"?>
<!DOCTYPE svg PUBLIC "-//W3C//DTD SVG 20010904//EN"
 "http://www.w3.org/TR/2001/REC-SVG-20010904/DTD/svg10.dtd">
<svg version="1.0" xmlns="http://www.w3.org/2000/svg"
 width="500.000000pt" height="500.000000pt" viewBox="0 0 500.000000 500.000000"
 preserveAspectRatio="xMidYMid meet">

<g transform="translate(0.000000,500.000000) scale(0.100000,-0.100000)"
fill="#000000" stroke="none">
<path d="M2784 3370 c-47 -11 -92 -47 -99 -79 -12 -55 -24 -58 -217 -63 l-178
-4 -11 35 c-6 20 -23 48 -37 64 -23 24 -32 27 -96 27 -50 0 -82 -6 -113 -21
-40 -19 -71 -54 -60 -66 3 -2 8 4 11 15 12 36 111 55 171 32 21 -8 55 -60 55
-84 0 -3 -21 4 -46 16 -45 19 -88 21 -179 6 -29 -5 -111 -91 -123 -130 -14
-45 -32 -280 -30 -392 l2 -91 6 120 c4 66 8 145 9 175 2 48 4 52 14 35 60
-101 183 -141 287 -94 74 33 117 87 134 166 9 38 -7 102 -34 136 -11 14 -20
28 -20 31 0 3 87 6 194 6 l193 0 -23 -47 c-95 -186 112 -373 304 -274 60 31
122 111 122 157 0 39 11 -2 55 -196 30 -131 45 -217 41 -239 -10 -63 -74 -111
-148 -111 -70 0 -95 24 -183 170 -44 73 -94 149 -111 169 l-32 36 -196 3
c-163 3 -201 1 -220 -11 -15 -10 -33 -44 -51 -94 -66 -186 -107 -246 -176
-257 -57 -9 -106 9 -130 48 -10 17 -19 26 -19 20 0 -22 41 -63 75 -74 35 -11
102 -7 161 11 59 18 116 107 164 254 12 39 28 76 34 84 8 11 45 13 183 9 146
-3 176 -7 191 -21 9 -10 58 -83 107 -164 60 -98 101 -155 124 -170 63 -43 198
-23 256 37 49 51 46 99 -25 387 -55 224 -65 255 -94 289 -18 22 -38 55 -45 74
-19 55 -55 80 -115 79 -28 -1 -65 -4 -82 -9z m112 -42 c6 -7 15 -24 19 -37 6
-21 5 -23 -11 -16 -33 14 -129 17 -169 6 -45 -12 -46 -12 -39 16 9 32 68 54
133 49 30 -3 60 -11 67 -18z m10 -73 c179 -90 129 -334 -77 -376 -92 -19 -182
19 -227 96 -33 58 -28 148 14 207 63 91 190 123 290 73z m-741 -24 c23 -10 53
-32 68 -50 101 -121 13 -301 -157 -318 -148 -15 -259 127 -202 260 44 104 185
156 291 108z"/>
<path d="M2757 3204 c-14 -14 -7 -54 14 -75 20 -20 21 -20 40 -3 13 12 19 28
17 48 -3 26 -8 31 -33 34 -17 2 -34 0 -38 -4z"/>
<path d="M2677 3123 c-4 -3 -7 -21 -7 -40 0 -31 2 -33 33 -33 37 0 57 15 57
42 0 28 -63 52 -83 31z"/>
<path d="M2835 3110 c-26 -29 -9 -54 39 -58 l37 -3 -3 38 c-3 32 -7 38 -29 41
-16 2 -32 -5 -44 -18z"/>
<path d="M2767 3042 c-10 -10 -17 -30 -17 -44 0 -21 6 -27 28 -30 43 -6 52 0
52 36 0 53 -32 72 -63 38z"/>
<path d="M2038 3209 c-25 -14 -24 -65 1 -79 11 -5 24 -10 30 -10 16 0 41 30
41 50 0 21 -25 50 -43 50 -7 0 -20 -5 -29 -11z"/>
<path d="M2141 3114 c-38 -27 -22 -84 25 -84 29 0 46 23 42 56 -4 34 -37 48
-67 28z"/>
<path d="M1915 3100 c-24 -27 -13 -68 22 -76 20 -5 31 -2 45 16 23 28 23 35
-2 60 -25 25 -42 25 -65 0z"/>
<path d="M2028 3019 c-46 -26 5 -104 51 -79 28 14 29 65 2 80 -24 12 -31 12
-53 -1z m46 -18 c4 -5 -3 -7 -14 -4 -23 6 -26 13 -6 13 8 0 17 -4 20 -9z"/>
<path d="M2315 3140 c-4 -6 33 -10 104 -10 67 0 111 4 111 10 0 6 -41 10 -104
10 -59 0 -108 -4 -111 -10z"/>
<path d="M2356 2981 c-18 -7 -16 -9 12 -19 29 -10 32 -9 32 9 0 20 -12 23 -44
10z"/>
<path d="M2450 2970 c0 -16 7 -20 35 -20 28 0 35 4 35 20 0 16 -7 20 -35 20
-28 0 -35 -4 -35 -20z"/>
<path d="M1877 2683 c-4 -3 -7 -22 -7 -40 0 -59 86 -123 104 -78 3 9 -4 25
-15 36 -11 11 -27 36 -35 55 -13 32 -32 43 -47 27z m42 -41 c11 -21 27 -44 35
-51 9 -7 13 -17 10 -22 -18 -30 -84 23 -84 69 0 25 7 42 16 42 2 0 12 -17 23
-38z"/>
<path d="M3047 2683 c-4 -3 -7 -16 -7 -27 0 -12 -7 -34 -15 -50 -17 -32 -19
-52 -6 -60 5 -4 7 2 4 12 -2 9 3 31 11 47 9 17 16 40 16 53 0 31 28 28 36 -4
4 -16 0 -40 -10 -63 -14 -31 -14 -33 -1 -16 23 29 29 63 16 91 -10 23 -31 31
-44 17z"/>
<path d="M1841 2614 c0 -11 3 -14 6 -6 3 7 2 16 -1 19 -3 4 -6 -2 -5 -13z"/>
<path d="M1108 2338 c-50 -13 -104 -74 -113 -127 -8 -50 23 -123 67 -154 38
-28 118 -34 173 -12 l45 17 0 59 c0 56 -1 59 -25 59 -23 0 -25 -4 -25 -44 0
-50 -8 -56 -73 -56 -66 1 -107 45 -107 114 0 78 95 130 169 91 25 -13 36 -14
47 -4 20 17 17 27 -13 43 -40 20 -102 26 -145 14z"/>
<path d="M1476 2318 c-8 -18 -39 -89 -70 -157 -31 -69 -56 -126 -56 -128 0 -2
13 -3 28 -3 23 0 30 6 41 35 l12 35 83 0 82 0 13 -35 c10 -29 17 -35 41 -35
33 0 40 -23 -54 190 -48 110 -58 125 -80 128 -22 3 -29 -3 -40 -30z m93 -160
c1 -5 -24 -8 -54 -8 -30 0 -55 4 -55 9 0 5 12 35 26 67 l27 59 28 -60 c15 -33
28 -63 28 -67z"/>
<path d="M1757 2343 c-4 -3 -7 -75 -7 -160 l0 -153 25 0 25 0 1 118 0 117 52
-102 c32 -64 57 -103 67 -103 10 0 35 38 65 98 l50 97 3 -112 c2 -105 4 -113
22 -113 19 0 20 8 20 161 l0 160 -27 -3 c-24 -3 -35 -17 -82 -108 l-54 -104
-53 107 c-46 90 -58 107 -77 107 -13 0 -27 -3 -30 -7z"/>
<path d="M2200 2190 l0 -160 115 0 115 0 0 25 c0 25 -1 25 -90 25 l-90 0 0 40
0 39 78 3 c71 3 77 5 80 26 3 21 1 22 -77 22 l-81 0 0 45 0 45 85 0 c84 0 85
0 85 25 l0 25 -110 0 -110 0 0 -160z"/>
<path d="M2527 2343 c-4 -3 -7 -75 -7 -160 l0 -153 30 0 c29 0 30 1 30 50 l0
50 66 0 c59 0 68 3 95 29 24 25 29 38 29 78 0 59 -26 90 -87 104 -45 10 -147
12 -156 2z m163 -56 c20 -10 25 -20 25 -52 0 -47 -25 -65 -92 -65 l-43 0 0 65
0 65 43 0 c23 0 53 -6 67 -13z"/>
<path d="M2860 2190 l0 -160 115 0 115 0 0 25 c0 25 -1 25 -90 25 l-90 0 0 40
0 39 78 3 c71 3 77 5 80 26 3 21 1 22 -77 22 l-81 0 0 45 0 45 85 0 c84 0 85
0 85 25 l0 25 -110 0 -110 0 0 -160z"/>
<path d="M3188 2344 c-5 -4 -8 -77 -8 -162 l0 -154 98 4 c82 2 102 7 130 26
90 65 88 206 -5 263 -23 15 -57 22 -120 26 -48 3 -91 2 -95 -3z m172 -59 c42
-21 60 -53 60 -103 0 -36 -5 -49 -31 -73 -27 -25 -39 -29 -90 -29 l-59 0 0
110 0 110 45 0 c26 0 59 -7 75 -15z"/>
<path d="M3567 2344 c-4 -4 -7 -76 -7 -161 l0 -153 30 0 31 0 -3 158 c-3 149
-4 157 -23 160 -12 2 -24 0 -28 -4z"/>
<path d="M3787 2248 c-25 -57 -57 -129 -71 -160 l-26 -58 29 0 c25 0 31 6 41
35 l12 35 83 0 83 0 12 -35 c10 -29 16 -35 41 -35 16 0 29 1 29 3 0 1 -31 72
-68 157 -60 137 -71 155 -94 158 -23 3 -29 -5 -71 -100z m92 -12 c39 -89 39
-86 -23 -86 -31 0 -56 2 -56 4 0 8 52 126 56 126 2 0 12 -20 23 -44z"/>
<path d="M1729 1832 c-44 -37 -18 -122 38 -122 41 0 63 18 63 50 0 27 -3 30
-30 30 -16 0 -30 -4 -30 -10 0 -5 9 -10 20 -10 29 0 25 -28 -5 -36 -48 -12
-75 44 -39 80 18 19 28 20 56 5 27 -14 38 -1 14 17 -27 19 -59 18 -87 -4z"/>
<path d="M1908 1785 c-18 -35 -28 -68 -24 -72 4 -4 12 0 17 10 13 23 77 23 95
0 7 -10 15 -15 19 -12 7 8 -56 139 -67 139 -5 0 -23 -29 -40 -65z m47 -13
c-22 -5 -27 1 -19 23 7 17 8 17 21 -1 12 -17 12 -19 -2 -22z"/>
<path d="M2070 1780 c0 -40 4 -70 10 -70 6 0 10 19 10 43 l1 42 17 -27 c9 -16
21 -28 27 -28 6 0 18 12 27 28 l17 27 1 -42 c0 -24 5 -43 10 -43 6 0 10 30 10
70 0 39 -3 70 -8 70 -4 0 -18 -18 -31 -39 l-25 -39 -28 39 c-15 21 -30 39 -33
39 -3 0 -5 -31 -5 -70z"/>
<path d="M2264 1836 c-3 -7 -4 -38 -2 -67 l3 -54 53 -3 c31 -2 52 1 52 7 0 6
-18 11 -40 11 -33 0 -40 3 -40 20 0 17 7 20 40 20 22 0 40 5 40 10 0 6 -18 10
-40 10 -33 0 -40 3 -40 20 0 17 7 20 40 20 22 0 40 5 40 10 0 16 -100 12 -106
-4z"/>
<path d="M2518 1839 c-37 -21 -15 -69 32 -69 32 0 55 -14 46 -29 -9 -14 -41
-14 -68 0 -25 13 -35 4 -18 -16 20 -24 89 -16 107 11 12 19 12 24 -2 38 -9 9
-32 16 -50 16 -41 0 -53 15 -24 31 16 8 27 8 45 -2 30 -16 46 -2 20 17 -23 16
-63 18 -88 3z"/>
<path d="M2655 1840 c-3 -6 5 -10 19 -10 23 0 25 -4 28 -57 4 -81 28 -85 28
-4 0 58 1 61 25 61 14 0 25 5 25 10 0 6 -26 10 -59 10 -33 0 -63 -4 -66 -10z"/>
<path d="M2842 1834 c-28 -20 -31 -83 -4 -107 26 -23 75 -21 97 3 57 63 -23
153 -93 104z m72 -20 c30 -30 14 -84 -25 -84 -23 0 -49 27 -49 50 0 22 25 50
45 50 7 0 21 -7 29 -16z"/>
<path d="M3010 1780 c0 -38 4 -70 9 -70 5 0 11 10 13 22 5 32 23 33 52 2 27
-29 48 -26 29 4 -8 14 -7 23 3 37 18 25 18 31 -6 55 -13 13 -33 20 -60 20
l-40 0 0 -70z m79 41 c23 -15 5 -41 -29 -41 -22 0 -30 5 -30 18 0 32 28 42 59
23z"/>
<path d="M3174 1836 c-3 -7 -4 -38 -2 -67 l3 -54 53 -3 c31 -2 52 1 52 7 0 6
-18 11 -40 11 -33 0 -40 3 -40 20 0 17 7 20 40 20 22 0 40 5 40 10 0 6 -18 10
-40 10 -33 0 -40 3 -40 20 0 17 7 20 40 20 22 0 40 5 40 10 0 16 -100 12 -106
-4z"/>
</g>
</svg>
