<?xml version="1.0" standalone="no"?>
<!DOCTYPE svg PUBLIC "-//W3C//DTD SVG 20010904//EN"
 "http://www.w3.org/TR/2001/REC-SVG-20010904/DTD/svg10.dtd">
<svg version="1.0" xmlns="http://www.w3.org/2000/svg"
 width="500.000000pt" height="500.000000pt" viewBox="0 0 500.000000 500.000000"
 preserveAspectRatio="xMidYMid meet">

<g transform="translate(0.000000,500.000000) scale(0.100000,-0.100000)"
fill="#000000" stroke="none">
<path d="M0 2500 l0 -2500 2500 0 2500 0 0 2500 0 2500 -2500 0 -2500 0 0
-2500z m2896 828 c6 -7 15 -24 19 -37 6 -21 5 -23 -11 -16 -33 14 -129 17
-169 6 -45 -12 -46 -12 -39 16 9 32 68 54 133 49 30 -3 60 -11 67 -18z m-741
-18 c21 -8 55 -60 55 -84 0 -3 -19 4 -42 14 -47 21 -122 26 -164 10 -15 -6
-29 -9 -31 -7 -10 11 23 57 46 66 35 13 104 13 136 1z m751 -55 c179 -90 129
-334 -77 -376 -92 -19 -182 19 -227 96 -33 58 -28 148 14 207 63 91 190 123
290 73z m-741 -24 c23 -10 53 -32 68 -50 101 -121 13 -301 -157 -318 -148 -15
-259 127 -202 260 44 104 185 156 291 108z m429 -68 c-111 -217 176 -404 359
-234 32 29 67 91 67 117 0 39 11 -2 55 -196 30 -131 45 -217 41 -239 -10 -63
-74 -111 -148 -111 -70 0 -95 24 -183 170 -44 73 -94 149 -111 169 l-32 36
-196 3 c-163 3 -201 1 -220 -11 -15 -10 -33 -44 -51 -94 -67 -189 -107 -247
-179 -257 -58 -9 -109 12 -131 54 -24 46 -29 117 -20 276 6 111 10 135 19 119
22 -40 83 -91 123 -103 81 -24 172 -4 231 51 74 69 88 188 32 260 -11 14 -20
28 -20 31 0 3 87 6 194 6 l193 0 -23 -47z m-1356 -833 c46 -21 47 -22 32 -50
-10 -18 -11 -18 -55 1 -60 26 -116 13 -146 -34 -44 -70 7 -167 87 -167 58 0
74 14 74 65 0 41 2 45 25 45 24 0 25 -2 25 -64 0 -63 0 -64 -36 -81 -46 -22
-121 -22 -161 -2 -122 64 -122 232 1 288 52 24 100 24 154 -1z m374 -139 c37
-85 68 -155 68 -157 0 -2 -14 -4 -31 -4 -25 0 -32 6 -45 35 l-14 35 -78 0 -78
0 -13 -35 c-10 -30 -17 -35 -43 -35 -36 0 -40 -16 45 178 61 140 63 142 92
140 28 -3 33 -11 97 -157z m254 57 l51 -103 52 103 c50 100 52 102 86 102 l35
0 0 -160 0 -160 -30 0 -30 0 -1 108 0 107 -47 -92 c-32 -65 -52 -93 -64 -93
-12 0 -33 30 -67 98 l-50 97 0 -112 -1 -113 -25 0 -25 0 0 160 0 160 33 0 c31
0 34 -4 83 -102z m562 75 c-3 -28 -4 -28 -85 -31 l-83 -3 0 -34 0 -34 73 -3
c70 -3 72 -4 75 -30 l3 -28 -75 0 -76 0 0 -40 0 -40 85 0 c84 0 85 0 85 -25
l0 -25 -115 0 -115 0 0 160 0 160 116 0 115 0 -3 -27z m288 12 c66 -27 82
-124 29 -178 -27 -26 -63 -37 -126 -37 l-39 0 0 -45 c0 -43 -1 -45 -30 -45
l-30 0 0 160 0 160 80 0 c48 0 95 -6 116 -15z m372 -12 c-3 -28 -4 -28 -85
-31 l-83 -3 0 -34 0 -34 73 -3 c70 -3 72 -4 75 -30 l3 -28 -75 0 -76 0 0 -40
0 -40 85 0 c84 0 85 0 85 -25 l0 -25 -115 0 -115 0 0 160 0 160 116 0 115 0
-3 -27z m298 8 c61 -28 89 -73 89 -143 0 -63 -19 -97 -75 -135 -28 -20 -46
-23 -126 -23 l-94 0 0 160 0 160 83 0 c58 0 94 -6 123 -19z m234 -141 l0 -160
-30 0 -30 0 0 160 0 160 30 0 30 0 0 -160z m327 18 c84 -194 80 -178 46 -178
-24 0 -33 7 -46 35 l-17 35 -75 0 -76 0 -15 -35 c-12 -29 -19 -35 -44 -35 -17
0 -30 2 -30 4 0 4 130 297 137 309 2 4 16 7 31 7 25 0 31 -10 89 -142z m-2127
-373 c18 -22 5 -30 -24 -17 -35 16 -72 -14 -63 -50 8 -32 31 -42 60 -26 22 11
22 11 -6 21 -38 12 -34 27 8 27 39 0 55 -21 38 -49 -39 -62 -133 -33 -133 41
0 55 87 93 120 53z m170 -45 c16 -33 30 -64 30 -70 0 -16 -27 -12 -34 5 -3 9
-18 15 -40 15 -21 0 -36 -6 -40 -15 -5 -13 -36 -22 -36 -10 0 18 67 135 77
135 7 0 26 -27 43 -60z m121 24 c24 -40 21 -41 63 21 23 33 38 6 34 -61 -2
-44 -7 -59 -18 -59 -9 0 -17 12 -20 30 -4 24 -7 26 -12 13 -10 -25 -32 -22
-51 5 -16 22 -16 21 -16 -16 -1 -60 -25 -41 -29 23 -5 89 12 104 49 44z m262
21 c1 -5 -17 -11 -40 -13 -29 -2 -43 -8 -43 -18 0 -10 12 -14 41 -14 52 0 48
-24 -4 -28 -24 -2 -37 -8 -37 -18 0 -10 13 -14 45 -14 25 0 45 -4 45 -10 0 -6
-27 -10 -60 -10 l-60 0 0 70 0 71 55 -3 c30 -2 56 -7 58 -13z m237 0 c9 -11
10 -19 3 -26 -8 -8 -13 -7 -17 0 -9 13 -66 15 -66 2 0 -11 25 -21 55 -21 34 0
51 -25 37 -55 -10 -21 -18 -25 -56 -25 -28 0 -51 6 -61 16 -25 25 -3 40 28 19
21 -14 30 -14 49 -4 13 7 18 14 13 15 -6 2 -29 8 -52 14 -35 9 -43 15 -43 33
0 13 5 28 12 35 17 17 83 15 98 -3z m170 0 c0 -9 -9 -15 -25 -15 -24 0 -25 -3
-25 -55 0 -42 -3 -55 -15 -55 -11 0 -15 13 -15 54 0 48 -2 55 -22 58 -12 2
-23 9 -26 16 -3 9 14 12 62 12 52 0 66 -3 66 -15z m160 -7 c35 -38 24 -93 -23
-113 -39 -16 -80 -3 -96 31 -16 35 -14 47 10 78 27 34 79 36 109 4z m172 5
c22 -20 23 -46 3 -63 -14 -12 -14 -15 0 -30 25 -27 -2 -37 -29 -11 -28 27 -42
27 -49 0 -3 -12 -12 -19 -19 -17 -13 5 -24 98 -14 124 8 20 85 18 108 -3z
m171 2 c1 -5 -17 -11 -40 -13 -29 -2 -43 -8 -43 -18 0 -10 12 -14 41 -14 52 0
48 -24 -4 -28 -24 -2 -37 -8 -37 -18 0 -10 13 -14 45 -14 25 0 45 -4 45 -10 0
-6 -27 -10 -60 -10 l-60 0 0 70 0 71 55 -3 c30 -2 56 -7 58 -13z"/>
<path d="M2757 3204 c-14 -14 -7 -54 14 -75 20 -20 21 -20 40 -3 13 12 19 28
17 48 -3 26 -8 31 -33 34 -17 2 -34 0 -38 -4z"/>
<path d="M2677 3123 c-4 -3 -7 -21 -7 -40 0 -31 2 -33 33 -33 37 0 57 15 57
42 0 28 -63 52 -83 31z"/>
<path d="M2835 3110 c-26 -29 -9 -54 39 -58 l37 -3 -3 38 c-3 32 -7 38 -29 41
-16 2 -32 -5 -44 -18z"/>
<path d="M2767 3042 c-10 -10 -17 -30 -17 -44 0 -21 6 -27 28 -30 43 -6 52 0
52 36 0 53 -32 72 -63 38z"/>
<path d="M2038 3209 c-25 -14 -24 -65 1 -79 11 -5 24 -10 30 -10 16 0 41 30
41 50 0 21 -25 50 -43 50 -7 0 -20 -5 -29 -11z"/>
<path d="M2141 3114 c-38 -27 -22 -84 25 -84 29 0 46 23 42 56 -4 34 -37 48
-67 28z"/>
<path d="M1915 3100 c-24 -27 -13 -68 22 -76 20 -5 31 -2 45 16 23 28 23 35
-2 60 -25 25 -42 25 -65 0z"/>
<path d="M2028 3019 c-46 -26 5 -104 51 -79 28 14 29 65 2 80 -24 12 -31 12
-53 -1z m46 -18 c4 -5 -3 -7 -14 -4 -23 6 -26 13 -6 13 8 0 17 -4 20 -9z"/>
<path d="M2315 3140 c-4 -6 33 -10 104 -10 67 0 111 4 111 10 0 6 -41 10 -104
10 -59 0 -108 -4 -111 -10z"/>
<path d="M2356 2981 c-18 -7 -16 -9 12 -19 29 -10 32 -9 32 9 0 20 -12 23 -44
10z"/>
<path d="M2450 2970 c0 -16 7 -20 35 -20 28 0 35 4 35 20 0 16 -7 20 -35 20
-28 0 -35 -4 -35 -20z"/>
<path d="M1877 2683 c-4 -3 -7 -22 -7 -40 0 -59 86 -123 104 -78 3 9 -4 25
-15 36 -11 11 -27 36 -35 55 -13 32 -32 43 -47 27z m42 -41 c11 -21 27 -44 35
-51 9 -7 13 -17 10 -22 -18 -30 -84 23 -84 69 0 25 7 42 16 42 2 0 12 -17 23
-38z"/>
<path d="M3047 2683 c-4 -3 -7 -16 -7 -27 0 -12 -7 -34 -15 -50 -17 -32 -19
-52 -6 -60 5 -4 7 2 4 12 -2 9 3 31 11 47 9 17 16 40 16 53 0 31 28 28 36 -4
4 -16 0 -40 -10 -63 -14 -31 -14 -33 -1 -16 23 29 29 63 16 91 -10 23 -31 31
-44 17z"/>
<path d="M1486 2219 c-15 -34 -25 -64 -22 -66 2 -2 26 -3 53 -1 l50 3 -27 63
-27 63 -27 -62z"/>
<path d="M2580 2235 l0 -55 54 0 c61 0 86 16 86 55 0 39 -25 55 -86 55 l-54 0
0 -55z"/>
<path d="M3240 2184 l0 -106 60 4 c45 3 66 10 85 28 46 43 42 130 -9 165 -12
9 -44 15 -78 15 l-58 0 0 -106z"/>
<path d="M3843 2255 c-6 -17 -18 -47 -27 -67 l-16 -38 55 0 c61 0 60 -8 18 90
l-20 44 -10 -29z"/>
<path d="M1936 1785 c-3 -9 0 -15 9 -15 16 0 20 16 6 24 -5 3 -11 -1 -15 -9z"/>
<path d="M2850 1801 c-18 -35 18 -79 54 -65 22 8 31 51 16 69 -18 21 -57 19
-70 -4z"/>
<path d="M3040 1800 c0 -17 5 -21 28 -18 16 2 27 9 27 18 0 9 -11 16 -27 18
-23 3 -28 -1 -28 -18z"/>
</g>
</svg>
