<?xml version="1.0" standalone="no"?>
<!DOCTYPE svg PUBLIC "-//W3C//DTD SVG 20010904//EN"
 "http://www.w3.org/TR/2001/REC-SVG-20010904/DTD/svg10.dtd">
<svg version="1.0" xmlns="http://www.w3.org/2000/svg"
 width="500.000000pt" height="500.000000pt" viewBox="0 0 500.000000 500.000000"
 preserveAspectRatio="xMidYMid meet">

<g transform="translate(0.000000,500.000000) scale(0.100000,-0.100000)"
fill="#000000" stroke="none">
<path d="M0 2500 l0 -2500 2500 0 2500 0 0 2500 0 2500 -2500 0 -2500 0 0
-2500z m2896 828 c6 -7 15 -24 19 -37 6 -21 5 -23 -11 -16 -33 14 -129 17
-169 6 -45 -12 -46 -12 -39 16 9 32 68 54 133 49 30 -3 60 -11 67 -18z m-741
-18 c21 -8 55 -60 55 -84 0 -3 -19 4 -42 14 -47 21 -122 26 -164 10 -15 -6
-29 -9 -31 -7 -10 11 23 57 46 66 35 13 104 13 136 1z m751 -55 c179 -90 129
-334 -77 -376 -92 -19 -182 19 -227 96 -33 58 -28 148 14 207 63 91 190 123
290 73z m-741 -24 c23 -10 53 -32 68 -50 101 -121 13 -301 -157 -318 -145 -15
-255 122 -205 254 39 105 187 163 294 114z m429 -68 c-111 -217 176 -404 359
-234 32 29 67 91 67 117 0 39 11 -2 55 -196 30 -131 45 -217 41 -239 -10 -63
-74 -111 -148 -111 -70 0 -95 24 -183 170 -44 73 -94 149 -111 169 l-32 36
-196 3 c-163 3 -201 1 -220 -11 -15 -10 -33 -44 -51 -94 -67 -189 -107 -247
-179 -257 -58 -9 -109 12 -131 54 -24 46 -29 117 -20 276 6 111 10 135 19 119
22 -40 83 -91 123 -103 81 -24 172 -4 231 51 74 69 88 188 32 260 -11 14 -20
28 -20 31 0 3 87 6 194 6 l193 0 -23 -47z m-1356 -833 c46 -21 47 -22 31 -48
-11 -18 -13 -17 -50 1 -78 38 -157 -3 -166 -86 -5 -43 -3 -49 30 -82 26 -26
43 -35 69 -35 67 0 77 8 80 59 3 39 6 46 26 49 21 3 22 0 22 -60 0 -64 0 -64
-35 -81 -20 -9 -60 -17 -89 -17 -125 0 -201 120 -144 230 42 80 137 110 226
70z m367 -125 c84 -192 79 -175 45 -175 -25 0 -32 6 -44 35 l-15 35 -80 0 -79
0 -12 -35 c-10 -29 -16 -35 -41 -35 -16 0 -29 2 -29 5 0 5 118 272 132 298 6
12 18 17 35 15 24 -3 33 -18 88 -143z m260 43 c28 -54 52 -98 55 -98 3 0 28
45 55 100 48 97 51 101 80 98 l30 -3 3 -157 3 -158 -31 0 -30 0 -1 108 0 107
-47 -92 c-32 -65 -52 -93 -64 -93 -12 0 -33 30 -67 98 l-50 97 0 -112 -1 -113
-25 0 -25 0 0 161 0 160 33 -3 c30 -3 36 -10 82 -100z m563 75 c3 -21 0 -22
-85 -25 l-88 -3 0 -40 0 -40 78 -3 c74 -3 77 -4 77 -27 0 -24 -2 -25 -80 -25
l-80 0 0 -40 0 -40 90 0 c89 0 90 0 90 -25 l0 -25 -115 0 -115 0 0 160 0 161
113 -3 c107 -3 112 -4 115 -25z m280 11 c46 -18 67 -52 66 -105 -2 -67 -60
-109 -149 -109 l-45 0 0 -45 c0 -43 -1 -45 -30 -45 l-30 0 0 160 0 160 75 0
c44 0 90 -6 113 -16z m380 -11 c3 -21 0 -22 -85 -25 l-88 -3 0 -40 0 -40 78
-3 c74 -3 77 -4 77 -27 0 -24 -2 -25 -80 -25 l-80 0 0 -40 0 -40 90 0 c89 0
90 0 90 -25 l0 -25 -115 0 -115 0 0 160 0 161 113 -3 c107 -3 112 -4 115 -25z
m312 1 c50 -28 84 -100 76 -159 -8 -53 -46 -102 -93 -121 -19 -8 -68 -14 -118
-14 l-85 0 0 161 0 161 93 -4 c69 -3 102 -9 127 -24z m220 -134 l0 -160 -30 0
-30 0 0 160 0 160 30 0 30 0 0 -160z m332 5 c37 -82 67 -153 67 -157 1 -5 -12
-8 -28 -8 -25 0 -32 6 -42 35 l-13 35 -78 0 -78 0 -17 -35 c-13 -28 -23 -35
-45 -35 -32 0 -36 -18 35 145 19 44 44 102 56 128 18 43 24 48 48 45 26 -3 34
-16 95 -153z m-2132 -360 c18 -22 5 -30 -25 -17 -30 14 -52 7 -60 -19 -14 -44
28 -85 60 -59 18 15 10 30 -16 30 -11 0 -17 5 -14 10 3 6 19 10 36 10 25 0 29
-4 29 -28 0 -36 -17 -52 -54 -52 -37 0 -49 7 -65 37 -16 31 -14 47 10 77 24
30 78 36 99 11z m172 -50 c30 -60 32 -102 4 -62 -17 22 -81 24 -90 2 -5 -14
-36 -22 -36 -9 0 14 73 134 81 134 5 0 24 -29 41 -65z m113 36 c22 -44 31 -45
55 -6 12 19 26 35 31 35 5 0 9 -31 9 -70 0 -40 -4 -70 -10 -70 -5 0 -10 17
-10 38 l-1 37 -18 -22 c-11 -13 -24 -23 -29 -23 -5 0 -17 10 -25 23 -16 22
-16 21 -16 -16 -1 -60 -25 -41 -29 23 -5 84 14 106 43 51z m265 19 c0 -5 -18
-10 -40 -10 -33 0 -40 -3 -40 -20 0 -17 7 -20 40 -20 22 0 40 -4 40 -10 0 -5
-18 -10 -40 -10 -33 0 -40 -3 -40 -20 0 -17 7 -20 40 -20 22 0 40 -4 40 -10 0
-5 -25 -10 -55 -10 l-55 0 0 63 c0 35 3 67 7 70 10 11 103 8 103 -3z m235 -3
c11 -9 15 -19 10 -26 -5 -9 -10 -10 -18 -2 -6 6 -24 11 -40 11 -41 0 -29 -24
17 -31 46 -7 60 -21 51 -48 -11 -36 -98 -43 -119 -9 -15 25 1 34 24 13 13 -12
27 -15 45 -11 36 9 31 24 -12 32 -46 8 -63 20 -63 45 0 35 68 52 105 26z m173
1 c-3 -7 -14 -14 -26 -16 -20 -3 -22 -10 -22 -59 0 -72 -24 -68 -28 5 -3 43
-6 52 -22 52 -20 0 -33 13 -23 24 3 3 33 6 66 6 42 0 58 -3 55 -12z m165 -20
c54 -73 -56 -153 -112 -82 -27 34 -26 54 0 88 28 36 83 33 112 -6z m169 15
c22 -20 23 -46 3 -63 -14 -12 -14 -15 0 -30 25 -27 -2 -37 -29 -11 -29 27 -56
27 -56 1 0 -11 -4 -20 -10 -20 -6 0 -10 30 -10 70 l0 70 42 0 c24 0 49 -7 60
-17z m168 7 c0 -5 -18 -10 -40 -10 -33 0 -40 -3 -40 -20 0 -17 7 -20 40 -20
22 0 40 -4 40 -10 0 -5 -18 -10 -40 -10 -33 0 -40 -3 -40 -20 0 -17 7 -20 40
-20 22 0 40 -4 40 -10 0 -5 -25 -10 -55 -10 l-55 0 0 63 c0 35 3 67 7 70 10
11 103 8 103 -3z"/>
<path d="M2757 3204 c-14 -14 -7 -54 14 -75 20 -20 21 -20 40 -3 13 12 19 28
17 48 -3 26 -8 31 -33 34 -17 2 -34 0 -38 -4z"/>
<path d="M2677 3123 c-4 -3 -7 -21 -7 -40 0 -31 2 -33 33 -33 37 0 57 15 57
42 0 28 -63 52 -83 31z"/>
<path d="M2835 3110 c-26 -29 -9 -54 39 -58 l37 -3 -3 38 c-3 32 -7 38 -29 41
-16 2 -32 -5 -44 -18z"/>
<path d="M2767 3042 c-10 -10 -17 -30 -17 -44 0 -21 6 -27 28 -30 43 -6 52 0
52 36 0 53 -32 72 -63 38z"/>
<path d="M2038 3209 c-25 -14 -24 -65 1 -79 11 -5 24 -10 30 -10 16 0 41 30
41 50 0 21 -25 50 -43 50 -7 0 -20 -5 -29 -11z"/>
<path d="M2141 3114 c-38 -27 -22 -84 25 -84 29 0 46 23 42 56 -4 34 -37 48
-67 28z"/>
<path d="M1915 3100 c-24 -27 -13 -68 22 -76 20 -5 31 -2 45 16 23 28 23 35
-2 60 -25 25 -42 25 -65 0z"/>
<path d="M2028 3019 c-46 -26 5 -104 51 -79 28 14 29 65 2 80 -24 12 -31 12
-53 -1z m46 -18 c4 -5 -3 -7 -14 -4 -23 6 -26 13 -6 13 8 0 17 -4 20 -9z"/>
<path d="M2315 3140 c-4 -6 33 -10 104 -10 67 0 111 4 111 10 0 6 -41 10 -104
10 -59 0 -108 -4 -111 -10z"/>
<path d="M2356 2981 c-18 -7 -16 -9 12 -19 29 -10 32 -9 32 9 0 20 -12 23 -44
10z"/>
<path d="M2450 2970 c0 -16 7 -20 35 -20 28 0 35 4 35 20 0 16 -7 20 -35 20
-28 0 -35 -4 -35 -20z"/>
<path d="M1877 2683 c-4 -3 -7 -22 -7 -40 0 -59 86 -123 104 -78 3 9 -4 25
-15 36 -11 11 -27 36 -35 55 -13 32 -32 43 -47 27z m42 -41 c11 -21 27 -44 35
-51 9 -7 13 -17 10 -22 -18 -30 -84 23 -84 69 0 25 7 42 16 42 2 0 12 -17 23
-38z"/>
<path d="M3047 2683 c-4 -3 -7 -16 -7 -27 0 -12 -7 -34 -15 -50 -17 -32 -19
-52 -6 -60 5 -4 7 2 4 12 -2 9 3 31 11 47 9 17 16 40 16 53 0 31 28 28 36 -4
4 -16 0 -40 -10 -63 -14 -31 -14 -33 -1 -16 23 29 29 63 16 91 -10 23 -31 31
-44 17z"/>
<path d="M1492 2237 c-40 -90 -40 -87 22 -87 l55 0 -26 63 c-14 34 -26 63 -28
65 -2 2 -12 -17 -23 -41z"/>
<path d="M2580 2235 l0 -68 58 7 c62 7 82 23 82 67 0 37 -19 49 -84 56 l-56 6
0 -68z"/>
<path d="M3240 2190 l0 -110 50 0 c63 0 103 20 120 60 15 37 7 95 -16 121 -19
22 -74 39 -121 39 l-33 0 0 -110z"/>
<path d="M3831 2229 c-12 -30 -25 -60 -28 -66 -4 -10 10 -13 51 -13 31 0 56 3
55 8 0 4 -13 34 -28 66 l-27 59 -23 -54z"/>
<path d="M1936 1785 c-4 -10 1 -15 14 -15 13 0 18 5 14 15 -4 8 -10 15 -14 15
-4 0 -10 -7 -14 -15z"/>
<path d="M2858 1811 c-16 -13 -19 -24 -14 -44 10 -43 68 -47 81 -6 16 49 -28
81 -67 50z"/>
<path d="M3030 1800 c0 -18 5 -21 33 -18 20 2 32 8 32 18 0 10 -12 16 -32 18
-28 3 -33 0 -33 -18z"/>
</g>
</svg>
